<svg width="86" height="86" viewBox="0 0 86 86" fill="none" xmlns="http://www.w3.org/2000/svg">
<rect width="85.6258" height="85.6258" rx="42.8129" fill="white"/>
<path opacity="0.2" d="M58.623 35.1875H27.373C26.9586 35.1875 26.5612 35.3521 26.2682 35.6451C25.9752 35.9382 25.8105 36.3356 25.8105 36.75V58.625C25.8105 59.0394 25.9752 59.4368 26.2682 59.7299C26.5612 60.0229 26.9586 60.1875 27.373 60.1875H58.623C59.0374 60.1875 59.4349 60.0229 59.7279 59.7299C60.0209 59.4368 60.1855 59.0394 60.1855 58.625V36.75C60.1855 36.3356 60.0209 35.9382 59.7279 35.6451C59.4349 35.3521 59.0374 35.1875 58.623 35.1875ZM42.998 49.25C42.2255 49.25 41.4702 49.0209 40.8279 48.5917C40.1855 48.1625 39.6848 47.5524 39.3891 46.8386C39.0935 46.1248 39.0161 45.3394 39.1669 44.5817C39.3176 43.8239 39.6896 43.1279 40.2359 42.5816C40.7822 42.0353 41.4782 41.6633 42.236 41.5126C42.9937 41.3618 43.7791 41.4392 44.4929 41.7348C45.2067 42.0305 45.8168 42.5312 46.246 43.1736C46.6752 43.8159 46.9043 44.5712 46.9043 45.3438C46.9043 46.3798 46.4927 47.3733 45.7602 48.1059C45.0276 48.8384 44.034 49.25 42.998 49.25V49.25Z" fill="#34BEAA"/>
<path d="M42.998 49.25C45.1554 49.25 46.9043 47.5011 46.9043 45.3438C46.9043 43.1864 45.1554 41.4375 42.998 41.4375C40.8407 41.4375 39.0918 43.1864 39.0918 45.3438C39.0918 47.5011 40.8407 49.25 42.998 49.25Z" stroke="#2D4356" stroke-width="2" stroke-linecap="round" stroke-linejoin="round"/>
<path d="M42.998 49.25V53.9375" stroke="#2D4356" stroke-width="2" stroke-linecap="round" stroke-linejoin="round"/>
<path d="M58.623 35.1875H27.373C26.5101 35.1875 25.8105 35.8871 25.8105 36.75V58.625C25.8105 59.4879 26.5101 60.1875 27.373 60.1875H58.623C59.486 60.1875 60.1855 59.4879 60.1855 58.625V36.75C60.1855 35.8871 59.486 35.1875 58.623 35.1875Z" stroke="#2D4356" stroke-width="2" stroke-linecap="round" stroke-linejoin="round"/>
<path d="M35.9668 35.1875V28.1562C35.9668 26.2914 36.7076 24.503 38.0262 23.1844C39.3448 21.8658 41.1332 21.125 42.998 21.125C44.8629 21.125 46.6513 21.8658 47.9699 23.1844C49.2885 24.503 50.0293 26.2914 50.0293 28.1562V35.1875" stroke="#2D4356" stroke-width="2" stroke-linecap="round" stroke-linejoin="round"/>
</svg>
