<svg width="86" height="86" viewBox="0 0 86 86" fill="none" xmlns="http://www.w3.org/2000/svg">
<rect width="85.6258" height="85.6258" rx="42.8129" fill="white"/>
<path d="M50.6258 18.3867L45.7724 18.04H45.4258V40.5734H68.3058L67.9591 36.0667L66.9191 32.9467L63.4524 26.7067L60.6791 23.24L55.1324 20.12L50.6258 18.3867Z" fill="#D6F2EE"/>
<path d="M64.125 45.4667C64.125 45.2513 64.0394 45.0446 63.887 44.8922C63.7347 44.7399 63.528 44.6542 63.3125 44.6542H41.375V22.6875C41.375 22.472 41.2894 22.2653 41.137 22.113C40.9847 21.9606 40.778 21.875 40.5625 21.875C27.5706 21.875 17 32.4294 17 45.4034C17 58.8551 27.1449 69 40.5966 69C53.1302 69 64.125 58.002 64.125 45.4667ZM18.625 45.4034C18.625 33.5961 28.0289 23.9436 39.75 23.5146V45.4667C39.75 45.9152 40.114 46.2792 40.5625 46.25H62.4837C62.0239 57.6087 51.9944 67.375 40.5966 67.375C28.0711 67.375 18.625 57.9305 18.625 45.4034Z" fill="#2D4356"/>
<path d="M45.4375 41.375H68.1859C68.6344 41.4042 69 41.011 69 40.5625C69 27.5706 58.4294 17 45.4375 17C45.222 17 45.0153 17.0856 44.863 17.238C44.7106 17.3903 44.625 17.597 44.625 17.8125V40.5917C44.625 41.0402 44.989 41.4042 45.4375 41.375ZM46.25 18.6396C57.7274 19.0605 66.9834 28.3409 67.3652 39.7792H46.25V18.6396Z" fill="#2D4356"/>
</svg>
