<svg width="86" height="86" viewBox="0 0 86 86" fill="none" xmlns="http://www.w3.org/2000/svg">
<g clip-path="url(#clip0_169_21201)">
<rect width="85.6258" height="85.6258" rx="42.8129" fill="white"/>
<path d="M34.6994 30.694L36.2382 31.0371C36.7937 29.6655 37.2612 28.5112 37.2625 28.5079C37.343 28.3306 37.4899 28.192 37.6716 28.1221C37.8533 28.0522 38.0553 28.0565 38.2338 28.1341L40.0523 28.9111C40.2197 28.9767 40.3543 29.1059 40.4268 29.2705C40.4992 29.435 40.5036 29.6215 40.439 29.7893L39.6276 31.7929L41.6701 32.2484C42.0661 31.2706 42.3582 30.5495 42.3593 30.5466C42.4398 30.3693 42.5867 30.2308 42.7684 30.1608C42.9501 30.0909 43.1521 30.0952 43.3306 30.1728L45.1491 30.9498C45.3165 31.0154 45.4511 31.1446 45.5236 31.3092C45.596 31.4737 45.6004 31.6602 45.5358 31.828L44.8878 33.4283C45.5335 33.9379 46.0297 34.6123 46.3241 35.3805C46.9253 33.8959 47.4545 32.5893 47.4561 32.5854C47.5365 32.408 47.6834 32.2694 47.8652 32.1995C48.0469 32.1296 48.2488 32.1339 48.4274 32.2116L50.2459 32.9885C50.4133 33.0541 50.5479 33.1833 50.6203 33.3479C50.6928 33.5124 50.6972 33.699 50.6326 33.8668L47.7759 40.9077C47.7038 41.0705 47.5714 41.1991 47.4066 41.2665C47.3131 41.3053 47.2128 41.3248 47.1117 41.324C47.0105 41.3232 46.9106 41.302 46.8177 41.2618L45.9554 40.8934C45.7199 41.5512 45.3355 42.1458 44.8323 42.6306L46.0167 43.1365C46.5066 43.3541 47.0511 43.4176 47.578 43.3187C47.7094 43.6646 47.9096 43.9802 48.1664 44.2466C48.4232 44.5129 48.7314 44.7245 49.0722 44.8684L50.8904 45.6451C51.2322 45.7926 51.6001 45.8699 51.9724 45.8725C52.3446 45.875 52.7135 45.8028 53.0573 45.66C53.4529 45.4943 53.8037 45.2376 54.0813 44.9107L53.8417 49.3684C53.8246 49.6648 53.741 49.9536 53.5971 50.2133L51.802 53.4537C51.3583 54.2604 51.2034 55.1945 51.363 56.1012L52.523 65.3655C52.5569 65.6334 52.6958 65.877 52.9091 66.0426C53.1225 66.2083 53.3929 66.2825 53.6609 66.2489C53.9289 66.2153 54.1726 66.0768 54.3386 65.8636C54.5045 65.6505 54.579 65.3802 54.5458 65.1121L53.3826 55.8217C53.3803 55.8028 53.3773 55.7841 53.3741 55.7655C53.2899 55.3131 53.3645 54.8456 53.5854 54.442L55.381 51.2003C55.6738 50.6707 55.8435 50.0819 55.8774 49.4776L56.3971 39.8097C56.3997 39.7489 56.3969 39.688 56.3886 39.6277L57.3958 37.1408C57.6649 36.4784 57.6608 35.7364 57.3843 35.077C57.1079 34.4176 56.5816 33.8945 55.9205 33.6221L54.1023 32.8454C53.6103 32.6351 53.068 32.5716 52.5407 32.6626C52.4093 32.3168 52.2091 32.0013 51.9523 31.7351C51.6956 31.4688 51.3875 31.2574 51.0467 31.1136L49.2285 30.3368C48.6063 30.0723 47.9088 30.0448 47.2678 30.2598C46.9716 29.73 46.5081 29.3133 45.9499 29.0748L44.1317 28.2981C43.5096 28.0335 42.812 28.0061 42.171 28.2211C41.8748 27.6913 41.4114 27.2746 40.8532 27.0361L39.035 26.2594C38.6932 26.1118 38.3253 26.0344 37.953 26.0318C37.5808 26.0292 37.2118 26.1016 36.8681 26.2445C36.5312 26.3813 36.2253 26.5844 35.9685 26.8418C35.7117 27.0991 35.5092 27.4055 35.3731 27.7427L34.2109 30.6122C34.3482 30.6278 34.4856 30.6492 34.6228 30.6775L34.6994 30.694ZM52.343 35.0743C52.4151 34.9114 52.5475 34.7828 52.7124 34.7154C52.8058 34.6767 52.9061 34.6571 53.0073 34.6579C53.1084 34.6587 53.2084 34.6799 53.3012 34.7201L55.1197 35.4971C55.2871 35.5627 55.4217 35.6919 55.4941 35.8564C55.5666 36.021 55.571 36.2075 55.5064 36.3753L52.6629 43.3966C52.6277 43.482 52.5757 43.5596 52.51 43.6246C52.4443 43.6896 52.3662 43.7408 52.2803 43.7751C52.1869 43.8137 52.0867 43.8333 51.9856 43.8325C51.8845 43.8317 51.7846 43.8107 51.6918 43.7706L51.6915 43.7704L49.8731 42.9934C49.7057 42.9278 49.571 42.7986 49.4986 42.634C49.4261 42.4695 49.4217 42.283 49.4863 42.1152L49.6564 41.6952C49.6626 41.6805 49.6724 41.6681 49.6784 41.6533L52.343 35.0743Z" fill="#2D4356"/>
<path d="M31.3283 34.1655L27.4771 42.7934C27.2717 43.2745 27.2162 43.8063 27.3176 44.3194C27.4191 44.8326 27.6728 45.3032 28.0457 45.67L37.3436 54.6135L36.6122 65.1697C36.6029 65.3032 36.62 65.4373 36.6626 65.5642C36.7051 65.6911 36.7722 65.8084 36.8601 65.9094C36.948 66.0104 37.0549 66.093 37.1748 66.1527C37.2946 66.2123 37.4251 66.2477 37.5586 66.257C37.5825 66.2587 37.6064 66.2594 37.63 66.2594C37.888 66.2592 38.1363 66.1611 38.3248 65.985C38.5133 65.8089 38.6281 65.5679 38.6459 65.3105L39.4102 54.2793C39.4205 54.1306 39.398 53.9814 39.3444 53.8423C39.2908 53.7032 39.2073 53.5775 39.0998 53.4742L29.4655 44.2072C29.3885 44.1313 29.3359 44.0343 29.3142 43.9285C29.2925 43.8226 29.3028 43.7127 29.3438 43.6127L33.194 34.9872C33.2434 34.8738 33.33 34.7805 33.4396 34.7229C33.5491 34.6653 33.675 34.6468 33.7965 34.6704L33.803 34.6717L33.8112 34.6734L42.1527 36.5339C42.2657 36.5596 42.3668 36.6224 42.4398 36.7124C42.5128 36.8024 42.5535 36.9143 42.5553 37.0302L42.1673 39.2115C42.1619 39.2423 42.1579 39.2734 42.1551 39.3048C42.1529 39.3324 42.1517 39.3581 42.1452 39.3986C42.1238 39.5351 42.0506 39.6581 41.9407 39.742C41.8309 39.8259 41.693 39.8641 41.5556 39.8488C41.5347 39.8463 41.5133 39.8446 41.4922 39.8436L35.2623 39.5325C35.062 39.5241 34.8636 39.5742 34.6914 39.6767C34.5191 39.7793 34.3805 39.9298 34.2925 40.1099C34.2056 40.291 34.1742 40.4937 34.2021 40.6926C34.23 40.8915 34.3161 41.0777 34.4495 41.2278L39.8721 47.331C40.0517 47.5331 40.3042 47.6556 40.5741 47.6715C40.844 47.6874 41.1092 47.5954 41.3113 47.4158C41.5134 47.2362 41.6359 46.9837 41.6518 46.7138C41.6677 46.4439 41.5757 46.1787 41.3961 45.9766L37.5872 41.6899L41.3625 41.8783C42.0141 41.9454 42.6666 41.7605 43.1861 41.3615C43.7057 40.9626 44.0527 40.3799 44.1561 39.7331C44.168 39.6649 44.176 39.5967 44.1825 39.5243L44.5757 37.3131C44.5829 37.273 44.5876 37.2324 44.5898 37.1917C44.6277 36.5849 44.4474 35.9845 44.0815 35.4989C43.7156 35.0134 43.1882 34.6746 42.5945 34.5438L34.249 32.6825L34.2273 32.6778L34.2092 32.674C33.6309 32.5567 33.0299 32.6407 32.5058 32.9119C31.9818 33.1832 31.5663 33.6255 31.3283 34.1655V34.1655ZM41.7928 18.8582V22.3316C41.7928 22.602 41.9002 22.8613 42.0914 23.0524C42.2825 23.2436 42.5418 23.351 42.8122 23.351C43.0825 23.351 43.3418 23.2436 43.533 23.0524C43.7241 22.8613 43.8315 22.602 43.8315 22.3316V18.8582C43.8315 18.5879 43.7241 18.3286 43.533 18.1374C43.3418 17.9463 43.0825 17.8389 42.8122 17.8389C42.5418 17.8389 42.2825 17.9463 42.0914 18.1374C41.9002 18.3286 41.7928 18.5879 41.7928 18.8582ZM66.2573 41.284H62.7839C62.5136 41.284 62.2543 41.3914 62.0631 41.5826C61.872 41.7738 61.7646 42.033 61.7646 42.3034C61.7646 42.5737 61.872 42.833 62.0631 43.0242C62.2543 43.2153 62.5136 43.3227 62.7839 43.3227H66.2573C66.5277 43.3227 66.787 43.2153 66.9781 43.0242C67.1693 42.833 67.2767 42.5737 67.2767 42.3034C67.2767 42.033 67.1693 41.7738 66.9781 41.5826C66.787 41.3914 66.5277 41.284 66.2573 41.284ZM18.3477 42.3034C18.3477 42.5737 18.4551 42.833 18.6462 43.0242C18.8374 43.2153 19.0967 43.3227 19.367 43.3227H22.8404C23.1108 43.3227 23.3701 43.2153 23.5612 43.0242C23.7524 42.833 23.8598 42.5737 23.8598 42.3034C23.8598 42.033 23.7524 41.7738 23.5612 41.5826C23.3701 41.3914 23.1108 41.284 22.8404 41.284H19.367C19.0967 41.284 18.8374 41.3914 18.6462 41.5826C18.4551 41.7738 18.3477 42.033 18.3477 42.3034V42.3034Z" fill="#2D4356"/>
<path d="M56.2138 28.9019C56.3085 28.9966 56.4208 29.0717 56.5445 29.123C56.6681 29.1742 56.8007 29.2006 56.9346 29.2006C57.0684 29.2006 57.201 29.1742 57.3246 29.123C57.4483 29.0717 57.5606 28.9966 57.6553 28.9019L60.1113 26.4459C60.3016 26.2546 60.4083 25.9956 60.4079 25.7257C60.4076 25.4559 60.3002 25.1972 60.1094 25.0064C59.9186 24.8156 59.6599 24.7082 59.3901 24.7078C59.1202 24.7075 58.8612 24.8141 58.6699 25.0044L56.2138 27.4605C56.1192 27.5551 56.0441 27.6675 55.9928 27.7912C55.9416 27.9148 55.9152 28.0474 55.9152 28.1812C55.9152 28.3151 55.9416 28.4476 55.9928 28.5713C56.0441 28.695 56.1192 28.8073 56.2138 28.9019V28.9019ZM25.5135 25.0044C25.4188 25.0991 25.3437 25.2114 25.2925 25.3351C25.2412 25.4588 25.2148 25.5913 25.2148 25.7252C25.2148 25.859 25.2412 25.9916 25.2925 26.1152C25.3437 26.2389 25.4188 26.3513 25.5135 26.4459L27.9695 28.9019C28.1608 29.0925 28.4199 29.1994 28.6899 29.1991C28.9598 29.1988 29.2187 29.0915 29.4096 28.9006C29.6005 28.7097 29.7079 28.4508 29.7081 28.1808C29.7084 27.9108 29.6015 27.6518 29.411 27.4605L26.9549 25.0045C26.8603 24.9098 26.7479 24.8347 26.6243 24.7834C26.5006 24.7322 26.3681 24.7058 26.2342 24.7058C26.1003 24.7058 25.9678 24.7322 25.8441 24.7834C25.7205 24.8347 25.6081 24.9098 25.5135 25.0044ZM45.3608 58.1034C45.0904 58.1034 44.8312 58.2108 44.64 58.4019C44.4488 58.5931 44.3414 58.8524 44.3414 59.1227V64.7292C44.3414 64.9995 44.4488 65.2588 44.64 65.45C44.8312 65.6411 45.0904 65.7485 45.3608 65.7485C45.6311 65.7485 45.8904 65.6411 46.0816 65.45C46.2728 65.2588 46.3801 64.9995 46.3801 64.7292V59.1227C46.3801 58.8524 46.2727 58.5931 46.0816 58.4019C45.8904 58.2108 45.6311 58.1034 45.3608 58.1034V58.1034Z" fill="#05AF97"/>
</g>
<defs>
<clipPath id="clip0_169_21201">
<rect width="85.6258" height="85.6258" rx="42.8129" fill="white"/>
</clipPath>
</defs>
</svg>
